<svg xmlns="http://www.w3.org/2000/svg" xmlns:xlink="http://www.w3.org/1999/xlink" id="Layer_1" x="0px" y="0px" viewBox="0 0 931.1 280" style="enable-background:new 0 0 931.1 280;" xml:space="preserve">
<style type="text/css">
	.st0{fill:none;}
	.st1{fill:#E5E5E5;}
	.st2{fill:#0072BC;}
	.st3{fill:#333333;}
	.st4{fill:#008FD5;}
</style>
<g>
	<polygon class="st0" points="505.5,261.5 523,261.5 523,263.8 524.3,263.8 524.3,250.4 505.5,250.4  "></polygon>
	<path class="st0" d="M554,245.5h17c-0.2-0.6-0.5-1.2-0.8-1.7c-2-1.5-4.5-2.3-7.4-2.3C559,241.5,556.1,242.9,554,245.5z"></path>
	<polygon class="st0" points="505.5,235.5 523,235.5 523,237.9 524.3,237.9 524.3,229.3 505.5,229.3  "></polygon>
	<path class="st0" d="M705.4,245.5h17c-0.2-0.6-0.5-1.2-0.8-1.7c-2-1.5-4.5-2.3-7.4-2.3C710.4,241.5,707.5,242.9,705.4,245.5z"></path>
	<path class="st0" d="M409.3,251.3c0-2.7-0.7-5-1.8-6.9c-1.8-1.4-4-2.2-6.6-2.2c-6.3,0-10.7,4.9-10.7,11.8c0,3.3,1,6.1,2.8,8.2   c1.5,0.8,3.2,1.3,5.1,1.3C404.7,263.6,409.3,258.5,409.3,251.3z"></path>
	<path class="st0" d="M458.2,245.5h17c-0.2-0.6-0.5-1.2-0.8-1.7c-2-1.5-4.5-2.3-7.4-2.3C463.2,241.5,460.3,242.9,458.2,245.5z"></path>
	<path class="st0" d="M323.8,251.5c0-2.6-0.6-4.9-1.8-6.8c-1.8-1.4-4.1-2.2-6.7-2.2c-6.2,0-10.7,4.8-10.7,11.5   c0,3.2,0.9,5.9,2.6,7.9c1.5,0.8,3.3,1.3,5.4,1.3C319.2,263.2,323.8,258.4,323.8,251.5z"></path>
	<path class="st0" d="M656.5,251.3c0-2.7-0.7-5-1.8-6.9c-1.8-1.4-4-2.2-6.6-2.2c-6.3,0-10.7,4.9-10.7,11.8c0,3.3,1,6.1,2.8,8.2   c1.5,0.8,3.2,1.3,5.1,1.3C651.9,263.6,656.5,258.5,656.5,251.3z"></path>
	<path class="st1" d="M241.8,233.2c-2.7-3-6.7-4.8-11.5-4.8c-3.5,0-6.7,1.1-10.2,3.5h-1.9v-2.4h-11.5v-12.7h-3v-2.4h-12.2v58.9h2.5   v2.9h12.7v-2.9h2.2v2.9h12.4v-19.5c0-4.1,0-7.7,2-10.8c1.5-2.4,3.8-3.7,6.5-3.7c1.1,0,2,0.2,2.8,0.5c0.9,2.2,1.2,5.5,1.2,9.9v20.8   h2.5v2.9h12.4v-30.1C248.6,240.6,246,235.9,241.8,233.2z M192.6,215.6h9.9v1.2v0.8v0.8v53.8h-6.9h-0.8H194h-1.4V215.6z    M234.1,243.9c-0.1-0.5-0.3-1.1-0.5-1.5c-0.2-0.5-0.4-0.9-0.6-1.2c-1.1-1.8-3-2.9-6-2.9c-3.2,0-5.9,1.6-7.7,4.4   c-2.2,3.5-2.2,7.2-2.2,11.6v18.1h-6.6h-0.8h-0.8h-1.4v-41.6h9.6v1.2v0.8v0.8v2.1l0.9-0.8c0.5-0.4,1-0.9,1.6-1.2   c0.3-0.2,0.6-0.4,0.8-0.6c0.3-0.2,0.6-0.4,0.8-0.6c3.1-2,5.9-2.9,9.1-2.9c2.8,0,5.3,0.7,7.4,1.9c1,0.5,1.8,1.2,2.6,1.9   c0.7,0.6,1.3,1.4,1.8,2.1c1.5,2.2,2.3,5,2.3,8.1v28.7h-6.6H237h-0.8h-1.4v-19.7C234.8,249.3,234.7,246.3,234.1,243.9z"></path>
	<path class="st1" d="M329.4,235.5c-4.2-4.4-10.2-7.1-16.9-7.1c-9.9,0-18.3,6.5-21.4,15.4c-0.6-4.6-3-8.3-6.6-10.6   c-2.7-3-6.7-4.8-11.5-4.8c-3.5,0-6.7,1.1-10.2,3.5h-1.9v-2.4h-11.8v43.9h2.5v2.9H264v-19.5c0-4.1,0-7.7,2-10.8   c1.5-2.4,3.8-3.7,6.5-3.7c1.1,0,2,0.2,2.8,0.5c0.9,2.2,1.2,5.5,1.2,9.9v20.8h2.5v2.9h12.4v-16.5c1.2,3.3,3.2,6.3,5.7,8.6   c4.2,5.5,10.8,9,18.3,9c13.2,0,23.5-10.3,23.5-23.4C338.8,246.4,335.1,239.7,329.4,235.5z M291.3,255.6c-0.2-1.3-0.4-2.7-0.4-4.1   c0-1.4,0.1-2.7,0.4-4c1.9-10.2,10.7-18,21.2-18c3.9,0,7.5,0.9,10.7,2.6c1.5,0.8,2.8,1.7,4,2.8c1.1,1,2.2,2.1,3.1,3.3   c2.7,3.6,4.4,8.2,4.4,13.2c0,12.3-9.7,22-22.1,22c-4.6,0-8.8-1.4-12.2-3.7c-1.3-0.9-2.5-1.9-3.6-3.1c-1.1-1.2-2.2-2.6-3-4.1   C292.6,260.4,291.7,258.1,291.3,255.6z M276.8,243.9c-0.1-0.5-0.3-1.1-0.5-1.5c-0.2-0.5-0.4-0.9-0.6-1.2c-1.1-1.8-3-2.9-6-2.9   c-3.2,0-5.9,1.6-7.7,4.4c-2.2,3.5-2.2,7.2-2.2,11.6v18.1h-6.6h-0.8h-0.8h-1.4v-41.6h9.6v1.2v0.8v0.8v2.1l0.9-0.8   c0.5-0.4,1-0.9,1.6-1.2c0.3-0.2,0.6-0.4,0.8-0.6c0.3-0.2,0.6-0.4,0.8-0.6c3.1-2,5.9-2.9,9.1-2.9c2.8,0,5.3,0.7,7.4,1.9   c1,0.5,1.8,1.2,2.6,1.9c0.7,0.6,1.3,1.4,1.8,2.1c1.5,2.2,2.3,5,2.3,8.1v28.7h-6.6h-0.8h-0.8h-1.4v-19.7   C277.5,249.3,277.4,246.3,276.8,243.9z"></path>
	<path class="st1" d="M376.9,231.9l1-2.4h-12.1l-9.5,22.1l-8.4-19.7H346l-1-2.4h-12.2l18.8,43.9h1.3l1.2,2.9h8l18.9-44.4H376.9z    M352.3,272.3l-17.8-41.6h9.7l0.5,1.2l0.4,0.8l0.4,0.8l9.9,23.2l0.7-1.5l0.5-1.1l0.5-1.1l9.6-22.4h9.7l-0.5,1.2l-0.4,0.8l-0.4,0.8   l-16.5,38.7h-4.3h-0.9h-0.9H352.3z"></path>
	<path class="st1" d="M480.5,234.8c-4.1-4-9.8-6.4-16.5-6.4c-7.3,0-13,2.9-16.9,7.2v-3.8h-3v-2.4h-3.3v-13.4h-3v-2.4h-11.8v15.8   h-5.3h-0.2h-11.7v3.9c-3.8-3.4-8-5.1-12.9-5.1c-11.8,0-20.7,9.9-20.7,23.1c0,7.1,2.8,13.4,7.3,17.6c3.9,5.2,9.7,8.4,16.4,8.4   c4.5,0,8.2-1.3,11.7-4h0.7v2.9h12.4v-33.6h2.3v30.7h2.5v2.9h12.4v-33.6h2.1c-1.1,2.8-1.6,5.8-1.6,8.7c0,7,2.7,13,7.1,17.1   c4.1,5.5,10.7,8.9,18.6,8.9c9.3,0,15.6-3,20.3-9.8l0.6-0.8l-3.7-1.8c0.1-0.1,0.1-0.1,0.2-0.2l0.4-0.5l-10-4.7l-0.3,0.3   c-2.9,2.9-5.9,4-10.2,4c-2.3,0-4.3-0.5-6.1-1.5c-1-1.2-1.8-2.7-2.2-4.4h34.3v-0.8c0-0.5,0-0.8,0-1.2c0-0.4,0-0.8,0-1.3   C490.3,246,486.6,238.9,480.5,234.8z M464.2,265c4.5,0,7.7-1.2,10.7-4.1l2.3,1.1l5.7,2.7c-0.1,0.2-0.3,0.3-0.4,0.5   c-0.2,0.2-0.4,0.5-0.5,0.7c-4.3,5.1-9.9,7.4-17.9,7.4c-4.8,0-9.2-1.4-12.7-3.8c-1.3-0.9-2.5-1.9-3.5-3.1c-1-1.1-2-2.4-2.7-3.8   c-1.8-3.3-2.9-7.1-2.9-11.3c0-2.9,0.6-5.9,1.7-8.7c0.1-0.3,0.2-0.6,0.4-0.8c0.1-0.3,0.3-0.6,0.4-0.8c0.2-0.4,0.4-0.8,0.7-1.2   c0.3-0.4,0.5-0.9,0.8-1.3c0.3-0.4,0.5-0.8,0.8-1.1c3.6-4.6,9.3-7.9,16.9-7.9c4,0,7.6,0.9,10.7,2.4c1.5,0.7,2.8,1.6,4,2.7   c1.2,1,2.2,2.1,3.1,3.3c2.8,3.8,4.4,8.6,4.4,14.2c0,0.5,0,0.8,0,1.2c0,0.2,0,0.4,0,0.7h-34.6l0.1,0.6c0.5,3.3,2.1,5.9,4.4,7.7   c0.7,0.5,1.4,1,2.1,1.3c0.8,0.4,1.6,0.7,2.5,0.9C461.7,264.9,462.9,265,464.2,265z M376.3,251.5c0-12.5,8.4-22,19.6-22   c3,0,5.7,0.7,8.2,2c1.2,0.6,2.4,1.4,3.5,2.4c0.4,0.4,0.9,0.8,1.3,1.2l1,1v-0.6v-1.1v-3.8h9.6v1.2v0.8v0.8v38.7h-6.6h-0.8h-1.4h-0.8   v-0.5V267l-1,0.9c-3.9,3.8-7.8,5.5-12.8,5.5c-3.9,0-7.4-1.2-10.4-3.2c-1.2-0.8-2.4-1.8-3.4-2.9c-1.2-1.3-2.2-2.7-3-4.2   C377.4,259.7,376.3,255.8,376.3,251.5z M427.1,242.7v-0.8V241v-2.4h-2.4h-0.8h-0.1h-0.7h-0.1H422h-0.4v-5.1v-0.8v-0.8v-1.2h5.5   v-15.8h9.6v1.2v0.8v0.8v12.9h2.5h0.8h0.8h2.2v1.2v0.8v0.8v5.1h-6.4v33.6h-6.6h-0.8h-0.8h-1.4V242.7z"></path>
	<path class="st1" d="M576.4,234.8c-4.1-4-9.8-6.4-16.5-6.4c-10.4,0-17.5,5.9-20.7,13.3v-26.3h-3V213h-11.8v3.8H523v-2.4h-32.7v58.9   h2.5v2.9h33.2v-2.9h0.7v2.9h12.4v-14.9c1.2,2.7,2.9,5.1,5,7.1c4.1,5.5,10.7,8.9,18.6,8.9c9.3,0,15.6-3,20.3-9.8l0.6-0.8l-3.7-1.8   c0.1-0.1,0.1-0.1,0.2-0.2l0.4-0.5l-10-4.7l-0.3,0.3c-2.9,2.9-5.9,4-10.2,4c-2.3,0-4.3-0.5-6.1-1.5c-1-1.2-1.8-2.7-2.2-4.4h34.3   v-0.8c0-0.5,0-0.8,0-1.2c0-0.4,0-0.8,0-1.3C586.1,246,582.4,238.9,576.4,234.8z M560,265c4.5,0,7.7-1.2,10.7-4.1l2.3,1.1l5.7,2.7   c-0.1,0.2-0.3,0.3-0.4,0.5c-0.2,0.2-0.4,0.5-0.5,0.7c-4.3,5.1-9.9,7.4-17.9,7.4c-4.8,0-9.2-1.4-12.7-3.8c-1.3-0.9-2.5-1.9-3.5-3.1   c-1-1.1-2-2.4-2.7-3.8c-0.8-1.4-1.5-2.9-1.9-4.6c-0.4-1.4-0.7-3-0.8-4.5c-0.1-0.7-0.1-1.5-0.1-2.2c0-0.7,0-1.4,0.1-2.1   c0.1-1.5,0.4-2.9,0.8-4.4c2.4-8.3,9.5-15.4,20.7-15.4c4,0,7.6,0.9,10.7,2.4c1.5,0.7,2.8,1.6,4,2.7c1.2,1,2.2,2.1,3.1,3.3   c2.8,3.8,4.4,8.6,4.4,14.2c0,0.5,0,0.8,0,1.2c0,0.2,0,0.4,0,0.7h-34.6l0.1,0.6c0.5,3.3,2.1,5.9,4.4,7.7c0.7,0.5,1.4,1,2.1,1.3   c0.8,0.4,1.6,0.7,2.5,0.9C557.6,264.9,558.8,265,560,265z M491.5,215.6h30.5v1.2v0.8v0.8v6.8h-20.5v11.4h2.5h0.8h0.8h16.4v1.2v0.8   v0.8v6.8h-20.5v16.3h2.5h0.8h0.8h16.4v1.2v0.8v0.8v6.8h-27.4h-0.8h-0.8h-1.4V215.6z M524.3,263.8H523v-2.4h-17.5v-11.1h18.7V263.8z    M524.3,237.9H523v-2.4h-17.5v-6.3h18.7V237.9z M525.4,263.8v-13.5v-12.5v-8.6v-12.5v-2.7h9.6v1.2v0.8v0.8v55.2h-6.6h-0.8h-0.8   h-0.7h-0.7V263.8z"></path>
	<path class="st1" d="M624.1,231.9l1-2.4H613l-9.5,22.1l-8.4-19.7h-1.9l-1-2.4H580l18.8,43.9h1.3l1.2,2.9h8l18.9-44.4H624.1z    M599.5,272.3l-17.8-41.6h9.7l0.5,1.2l0.4,0.8l0.4,0.8l9.9,23.2l0.7-1.5l0.5-1.1l0.5-1.1l9.6-22.4h9.7l-0.5,1.2l-0.4,0.8l-0.4,0.8   l-16.5,38.7h-4.3h-0.9h-0.9H599.5z"></path>
	<path class="st1" d="M727.7,234.8c-4.1-4-9.8-6.4-16.5-6.4c-7.3,0-13,2.9-16.9,7.2v-3.8h-3v-2.4H688v-13.4h-3v-2.4h-11.8v15.8h-5.3   h-0.2H656v3.9c-3.8-3.4-8-5.1-12.9-5.1c-11.8,0-20.7,9.9-20.7,23.1c0,7.1,2.8,13.4,7.3,17.6c3.9,5.2,9.7,8.4,16.4,8.4   c4.5,0,8.2-1.3,11.7-4h0.7v2.9h12.4v-33.6h2.3v30.7h2.5v2.9H688v-33.6h2.1c-1.1,2.8-1.6,5.8-1.6,8.7c0,7,2.7,13,7.1,17.1   c4.1,5.5,10.7,8.9,18.6,8.9c9.3,0,15.6-3,20.3-9.8l0.6-0.8l-3.7-1.8c0.1-0.1,0.1-0.1,0.2-0.2l0.4-0.5l-10-4.7l-0.3,0.3   c-2.9,2.9-5.9,4-10.2,4c-2.3,0-4.3-0.5-6.1-1.5c-1-1.2-1.8-2.7-2.2-4.4h34.3v-0.8c0-0.5,0-0.8,0-1.2c0-0.4,0-0.8,0-1.3   C737.5,246,733.8,238.9,727.7,234.8z M711.4,265c4.5,0,7.7-1.2,10.7-4.1l2.3,1.1l5.7,2.7c-0.1,0.2-0.3,0.3-0.4,0.5   c-0.2,0.2-0.4,0.5-0.5,0.7c-4.3,5.1-9.9,7.4-17.9,7.4c-4.8,0-9.2-1.4-12.7-3.8c-1.3-0.9-2.5-1.9-3.5-3.1c-1-1.1-2-2.4-2.7-3.8   c-1.8-3.3-2.9-7.1-2.9-11.3c0-2.9,0.6-5.9,1.7-8.7c0.1-0.3,0.2-0.6,0.4-0.8c0.1-0.3,0.3-0.6,0.4-0.8c0.2-0.4,0.4-0.8,0.7-1.2   c0.3-0.4,0.5-0.9,0.8-1.3c0.3-0.4,0.5-0.8,0.8-1.1c3.6-4.6,9.3-7.9,16.9-7.9c4,0,7.6,0.9,10.7,2.4c1.5,0.7,2.8,1.6,4,2.7   c1.2,1,2.2,2.1,3.1,3.3c2.8,3.8,4.4,8.6,4.4,14.2c0,0.5,0,0.8,0,1.2c0,0.2,0,0.4,0,0.7h-34.6l0.1,0.6c0.5,3.3,2.1,5.9,4.4,7.7   c0.7,0.5,1.4,1,2.1,1.3c0.8,0.4,1.6,0.7,2.5,0.9C708.9,264.9,710.1,265,711.4,265z M623.5,251.5c0-12.5,8.4-22,19.6-22   c3,0,5.7,0.7,8.2,2c1.2,0.6,2.4,1.4,3.5,2.4c0.4,0.4,0.9,0.8,1.3,1.2l1,1v-0.6v-1.1v-3.8h9.6v1.2v0.8v0.8v38.7h-6.6h-0.8h-1.4h-0.8   v-0.5V267l-1,0.9c-3.9,3.8-7.8,5.5-12.8,5.5c-3.9,0-7.4-1.2-10.4-3.2c-1.2-0.8-2.4-1.8-3.4-2.9c-1.2-1.3-2.2-2.7-3-4.2   C624.6,259.7,623.5,255.8,623.5,251.5z M674.3,242.7v-0.8V241v-2.4h-2.4H671h-0.1h-0.7H670h-0.8h-0.4v-5.1v-0.8v-0.8v-1.2h5.5   v-15.8h9.6v1.2v0.8v0.8v12.9h2.5h0.8h0.8h2.2v1.2v0.8v0.8v5.1h-6.4v33.6h-6.6h-0.8h-0.8h-1.4V242.7z"></path>
	<path class="st1" d="M309.6,264c1,0.2,2,0.4,3.1,0.4c7.1,0,12.3-5.4,12.3-12.9c0-1.5-0.2-3-0.6-4.3c-0.3-0.9-0.6-1.8-1-2.5   c-0.4-0.8-0.9-1.5-1.4-2.1c-2.2-2.5-5.4-4-9.2-4c-7,0-12.1,5.4-12.1,12.9c0,4.5,1.7,8.2,4.6,10.5c0.6,0.5,1.3,0.9,2.1,1.3   C308,263.5,308.7,263.8,309.6,264z M304.7,254c0-6.7,4.5-11.5,10.7-11.5c2.6,0,4.9,0.8,6.7,2.2c1.1,1.9,1.8,4.2,1.8,6.8   c0,6.9-4.6,11.8-11.2,11.8c-2,0-3.8-0.5-5.4-1.3C305.6,260,304.7,257.3,304.7,254z"></path>
	<path class="st1" d="M395.3,264.4c0.9,0.2,1.8,0.3,2.7,0.3c7.3,0,12.3-5.5,12.3-13.4c0-1.6-0.2-3.1-0.6-4.4c-0.3-0.9-0.6-1.7-1-2.5   c-0.4-0.7-0.9-1.4-1.4-2.1c-2.2-2.6-5.4-4.1-9.3-4.1c-7,0-12.1,5.6-12.1,13.2c0,4.6,1.8,8.4,4.7,10.8c0.7,0.5,1.4,1,2.2,1.4   C393.7,263.9,394.5,264.2,395.3,264.4z M390.1,254c0-7,4.4-11.8,10.7-11.8c2.6,0,4.8,0.8,6.6,2.2c1.2,1.9,1.8,4.3,1.8,6.9   c0,7.2-4.6,12.2-11.2,12.2c-1.9,0-3.6-0.5-5.1-1.3C391.2,260.2,390.1,257.3,390.1,254z"></path>
	<path class="st1" d="M456.4,246.6h1h19.3l-0.2-0.5l-0.1-0.2c-0.2-0.8-0.5-1.5-0.9-2.2c-0.4-0.8-0.9-1.5-1.4-2.1   c-2.3-2.7-5.8-4.2-10-4.2c-5.7,0-9.9,2.9-12,8.4l-0.3,0.8h3.6H456.4z M475.2,245.5h-17c2.1-2.6,5-4,8.7-4c2.9,0,5.5,0.8,7.4,2.3   C474.7,244.4,474.9,244.9,475.2,245.5z"></path>
	<path class="st1" d="M552.2,246.6h1h19.3l-0.2-0.5l-0.1-0.2c-0.2-0.8-0.5-1.5-0.9-2.2c-0.4-0.8-0.9-1.5-1.4-2.1   c-2.3-2.7-5.8-4.2-10-4.2c-5.7,0-9.9,2.9-12,8.4l-0.3,0.8h3.6H552.2z M571,245.5h-17c2.1-2.6,5-4,8.7-4c2.9,0,5.5,0.8,7.4,2.3   C570.5,244.4,570.8,244.9,571,245.5z"></path>
	<path class="st1" d="M642.5,264.4c0.9,0.2,1.8,0.3,2.7,0.3c7.3,0,12.3-5.5,12.3-13.4c0-1.6-0.2-3.1-0.6-4.4c-0.3-0.9-0.6-1.7-1-2.5   c-0.4-0.7-0.9-1.4-1.4-2.1c-2.2-2.6-5.4-4.1-9.3-4.1c-7,0-12.1,5.6-12.1,13.2c0,4.6,1.8,8.4,4.7,10.8c0.7,0.5,1.4,1,2.2,1.4   C640.9,263.9,641.7,264.2,642.5,264.4z M637.4,254c0-7,4.4-11.8,10.7-11.8c2.6,0,4.8,0.8,6.6,2.2c1.2,1.9,1.8,4.3,1.8,6.9   c0,7.2-4.6,12.2-11.2,12.2c-1.9,0-3.6-0.5-5.1-1.3C638.4,260.2,637.4,257.3,637.4,254z"></path>
	<path class="st1" d="M703.6,246.6h1h19.3l-0.2-0.5l-0.1-0.2c-0.2-0.8-0.5-1.5-0.9-2.2c-0.4-0.8-0.9-1.5-1.4-2.1   c-2.3-2.7-5.8-4.2-10-4.2c-5.7,0-9.9,2.9-12,8.4l-0.3,0.8h3.6H703.6z M722.4,245.5h-17c2.1-2.6,5-4,8.7-4c2.9,0,5.5,0.8,7.4,2.3   C721.9,244.4,722.2,244.9,722.4,245.5z"></path>
	<g>
		<path class="st0" d="M323.3,244.6c-0.4-0.8-0.9-1.5-1.4-2.1c-2.2-2.5-5.4-4-9.2-4c-7,0-12,5.4-12.1,12.8c7.6-0.7,15.7-1.4,24.2-2    c-0.1-0.7-0.3-1.4-0.4-2.1C324.1,246.3,323.7,245.4,323.3,244.6z"></path>
		<path class="st0" d="M398.1,238.2c-4.9,0-8.9,2.7-10.8,7c6.9-0.4,14-0.7,21.3-1.1c-0.4-0.7-0.8-1.3-1.3-1.8    C405.2,239.7,401.9,238.2,398.1,238.2z"></path>
		<path class="st0" d="M552.9,239.5c4.7-0.1,9.4-0.2,14.1-0.3c-2-1.1-4.3-1.7-7-1.7C557.2,237.5,554.8,238.2,552.9,239.5z"></path>
		<path class="st0" d="M276.8,243.9c-0.1-0.5-0.3-1.1-0.5-1.5c-0.2-0.5-0.4-0.9-0.6-1.2c-1.1-1.8-3-2.9-6-2.9    c-3.2,0-5.9,1.6-7.7,4.4c-2.2,3.5-2.2,7.2-2.2,11.6v1.5c5.6-0.7,11.5-1.4,17.7-2.1v-1C277.5,249.3,277.4,246.3,276.8,243.9z"></path>
		<path class="st0" d="M708.8,237.7c1.7,0,3.3,0,5,0c-0.8-0.1-1.6-0.2-2.5-0.2C710.5,237.5,709.6,237.6,708.8,237.7z"></path>
		<path class="st0" d="M464.2,237.5c-4.3,0-7.7,1.6-10.1,4.8c6.5-0.2,13.1-0.5,19.9-0.7C471.8,239,468.3,237.5,464.2,237.5z"></path>
		<path class="st0" d="M234.1,243.9c-0.1-0.5-0.3-1.1-0.5-1.5c-0.2-0.5-0.4-0.9-0.6-1.2c-1.1-1.8-3-2.9-6-2.9    c-3.2,0-5.9,1.6-7.7,4.4c-2.2,3.5-2.2,7.2-2.2,11.6v8.2c5.3-1.1,11.2-2.1,17.7-3.1v-6.6C234.8,249.3,234.7,246.3,234.1,243.9z"></path>
		<path d="M202.6,218.5v-0.8v-0.8v-1.2h-9.9v52.8c2.9-0.9,6.2-1.8,9.9-2.8V218.5z"></path>
		<path d="M217.1,254.2c0-4.4,0-8.1,2.2-11.6c1.8-2.8,4.5-4.4,7.7-4.4c3,0,4.8,1.1,6,2.9c0.2,0.4,0.5,0.8,0.6,1.2    c0.2,0.5,0.3,1,0.5,1.5c0.6,2.4,0.7,5.4,0.7,8.7v6.6c3.1-0.5,6.3-1,9.6-1.5v-14.1c0-3.1-0.8-5.9-2.3-8.1c-0.5-0.8-1.1-1.5-1.8-2.1    c-0.8-0.8-1.6-1.4-2.6-1.9c-2.1-1.2-4.6-1.9-7.4-1.9c-3.1,0-6,0.9-9.1,2.9c-0.3,0.2-0.6,0.4-0.8,0.6c-0.3,0.2-0.6,0.4-0.8,0.6    c-0.5,0.4-1,0.8-1.6,1.2l-0.9,0.8v-2.1v-0.8v-0.8v-1.2h-9.6v33.8c3-0.7,6.2-1.4,9.6-2V254.2z"></path>
		<path d="M259.8,254.2c0-4.4,0-8.1,2.2-11.6c1.8-2.8,4.5-4.4,7.7-4.4c3,0,4.8,1.1,6,2.9c0.2,0.4,0.5,0.8,0.6,1.2    c0.2,0.5,0.3,1,0.5,1.5c0.6,2.4,0.7,5.4,0.7,8.7v1c3.1-0.3,6.3-0.7,9.6-1v-9c0-3.1-0.8-5.9-2.3-8.1c-0.5-0.8-1.1-1.5-1.8-2.1    c-0.8-0.8-1.6-1.4-2.6-1.9c-2.1-1.2-4.6-1.9-7.4-1.9c-3.1,0-6,0.9-9.1,2.9c-0.3,0.2-0.6,0.4-0.8,0.6c-0.3,0.2-0.6,0.4-0.8,0.6    c-0.5,0.4-1,0.8-1.6,1.2l-0.9,0.8v-2.1v-0.8v-0.8v-1.2h-9.6v26.3c3.1-0.4,6.3-0.8,9.6-1.3V254.2z"></path>
		<path d="M312.6,238.5c3.8,0,7,1.5,9.2,4c0.6,0.6,1,1.3,1.4,2.1c0.4,0.8,0.8,1.6,1,2.5c0.2,0.7,0.3,1.4,0.4,2.1    c3.1-0.2,6.4-0.5,9.6-0.7c-0.5-3.9-2-7.4-4.2-10.3c-0.9-1.2-1.9-2.3-3.1-3.3c-1.2-1.1-2.6-2-4-2.8c-3.1-1.7-6.8-2.6-10.7-2.6    c-10.6,0-19.3,7.8-21.2,18c-0.2,1.3-0.4,2.6-0.4,4c0,0.3,0,0.5,0,0.8c3.1-0.3,6.3-0.6,9.6-0.9    C300.6,243.9,305.7,238.5,312.6,238.5z"></path>
		<path d="M375,233.5l0.4-0.8l0.4-0.8l0.5-1.2h-9.7l-6.9,16.2c3.3-0.2,6.6-0.4,10-0.6L375,233.5z"></path>
		<path d="M345.5,233.5l-0.4-0.8l-0.4-0.8l-0.5-1.2h-9.7l7.4,17.4c3.1-0.2,6.3-0.4,9.5-0.6L345.5,233.5z"></path>
		<path d="M398.1,238.2c3.9,0,7.1,1.5,9.3,4.1c0.5,0.6,0.9,1.2,1.3,1.8c3.6-0.2,7.2-0.3,10.9-0.5v-10.1v-0.8v-0.8v-1.2h-9.6v3.8v1.1    v0.6l-1-1c-0.4-0.4-0.9-0.8-1.3-1.2c-1.1-1-2.3-1.8-3.5-2.4c-2.5-1.3-5.2-2-8.2-2c-9.4,0-16.8,6.7-18.9,16.3    c3.4-0.2,6.8-0.4,10.3-0.6C389.2,240.9,393.2,238.2,398.1,238.2z"></path>
		<path d="M436.6,238.7h6.4v-5.1v-0.8v-0.8v-1.2h-2.2H440h-0.8h-2.5v-12.9v-0.8v-0.8v-1.2h-9.6v15.8h-5.5v1.2v0.8v0.8v5.1h0.4h0.8    h0.1h0.7h0.1h0.8h2.4v2.4v0.8v0.8v0.6c3.2-0.1,6.4-0.3,9.6-0.4V238.7z"></path>
		<path d="M464.2,237.5c4.1,0,7.6,1.5,9.9,4.1c3.2-0.1,6.4-0.2,9.7-0.3c-0.6-1.2-1.2-2.3-2-3.3c-0.9-1.2-1.9-2.4-3.1-3.3    c-1.2-1-2.6-1.9-4-2.7c-3.1-1.6-6.7-2.4-10.7-2.4c-7.5,0-13.2,3.2-16.9,7.9c-0.3,0.4-0.6,0.8-0.8,1.1c-0.3,0.4-0.6,0.9-0.8,1.3    c-0.2,0.4-0.4,0.8-0.7,1.2c-0.1,0.3-0.3,0.6-0.4,0.8c-0.1,0.2-0.2,0.5-0.3,0.7c3.3-0.1,6.6-0.3,10-0.4    C456.5,239.1,459.9,237.5,464.2,237.5z"></path>
		<path class="st2" d="M521.9,239.6v-0.8v-0.8v-1.2h-16.4h-0.8h-0.8h-2.5v-11.4h20.5v-6.8v-0.8v-0.8v-1.2h-30.5V241    c9.9-0.3,20-0.6,30.5-0.8V239.6z"></path>
		<path class="st2" d="M535,217v-0.8v-0.8v-1.2h-9.6v2.7v12.5v8.6v2.2c3.2-0.1,6.4-0.2,9.6-0.2V217z"></path>
		<path class="st2" d="M560,237.5c2.6,0,5,0.6,7,1.7c3.7-0.1,7.5-0.1,11.3-0.2c-0.2-0.4-0.5-0.7-0.7-1c-0.9-1.2-1.9-2.4-3.1-3.3    c-1.2-1-2.6-1.9-4-2.7c-3.1-1.6-6.7-2.4-10.7-2.4c-8.8,0-15,4.4-18.5,10.2c3.8-0.1,7.6-0.2,11.5-0.2    C554.8,238.2,557.2,237.5,560,237.5z"></path>
		<path class="st2" d="M592.7,233.5l-0.4-0.8l-0.4-0.8l-0.5-1.2h-9.7l3.5,8.3c3.2-0.1,6.4-0.1,9.7-0.2L592.7,233.5z"></path>
		<path class="st2" d="M622.2,233.5l0.4-0.8l0.4-0.8l0.5-1.2h-9.7l-3.4,7.9c3.2,0,6.5-0.1,9.7-0.1L622.2,233.5z"></path>
		<path class="st2" d="M666.7,233.5v-0.8v-0.8v-1.2h-9.6v3.8v1.1v0.6l-1-1c-0.4-0.4-0.9-0.8-1.3-1.2c-1.1-1-2.3-1.8-3.5-2.4    c-2.5-1.3-5.2-2-8.2-2c-6.7,0-12.4,3.4-15.9,8.8c12.8-0.1,25.9-0.3,39.5-0.4V233.5z"></path>
		<path class="st2" d="M690.2,233.5v-0.8v-0.8v-1.2H688h-0.8h-0.8h-2.5v-12.9v-0.8v-0.8v-1.2h-9.6v15.8h-5.5v1.2v0.8v0.8v4.4    c7-0.1,14.2-0.1,21.4-0.1V233.5z"></path>
		<path class="st2" d="M711.4,237.5c0.8,0,1.7,0.1,2.5,0.2c4.9,0,9.9,0,14.9,0c-0.8-1.1-1.8-2.1-2.8-3c-1.2-1-2.6-1.9-4-2.7    c-3.1-1.6-6.7-2.4-10.7-2.4c-7.5,0-13.2,3.2-16.9,7.9c-0.1,0.1-0.2,0.3-0.3,0.4c4.9,0,9.8,0,14.7-0.1    C709.6,237.6,710.5,237.5,711.4,237.5z"></path>
		<path d="M194,272.3h0.8h0.8h6.9v-6.7c-3.7,0.9-7,1.9-9.9,2.8v3.9H194z"></path>
		<path class="st3" d="M194,272.3h0.8h0.8h6.9v-6.7c-3.7,0.9-7,1.9-9.9,2.8v3.9H194z"></path>
		<path d="M208.9,272.3h0.8h0.8h6.6v-9.9c-3.4,0.7-6.6,1.4-9.6,2v7.9H208.9z"></path>
		<path class="st3" d="M208.9,272.3h0.8h0.8h6.6v-9.9c-3.4,0.7-6.6,1.4-9.6,2v7.9H208.9z"></path>
		<path d="M234.8,272.3h1.4h0.8h0.8h6.6v-14.5c-3.3,0.5-6.5,1-9.6,1.5V272.3z"></path>
		<path class="st3" d="M234.8,272.3h1.4h0.8h0.8h6.6v-14.5c-3.3,0.5-6.5,1-9.6,1.5V272.3z"></path>
		<path d="M277.5,272.3h1.4h0.8h0.8h6.6v-19.7c-3.3,0.3-6.5,0.7-9.6,1V272.3z"></path>
		<path class="st3" d="M277.5,272.3h1.4h0.8h0.8h6.6v-19.7c-3.3,0.3-6.5,0.7-9.6,1V272.3z"></path>
		<path d="M251.6,272.3h0.8h0.8h6.6v-16.6c-3.3,0.4-6.5,0.8-9.6,1.3v15.3H251.6z"></path>
		<path class="st3" d="M251.6,272.3h0.8h0.8h6.6v-16.6c-3.3,0.4-6.5,0.8-9.6,1.3v15.3H251.6z"></path>
		<path d="M293.7,262.5c0.8,1.5,1.8,2.9,3,4.1c1.1,1.2,2.3,2.2,3.6,3.1c3.5,2.4,7.7,3.7,12.2,3.7c12.4,0,22.1-9.7,22.1-22    c0-1-0.1-1.9-0.2-2.9c-3.3,0.2-6.5,0.5-9.6,0.7c0.1,0.7,0.2,1.4,0.2,2.2c0,7.5-5.2,12.9-12.3,12.9c-1.1,0-2.1-0.1-3.1-0.4    c-0.8-0.2-1.6-0.5-2.3-0.8c-0.7-0.4-1.4-0.8-2.1-1.3c-2.9-2.3-4.6-6-4.6-10.5c0,0,0-0.1,0-0.1c-3.3,0.3-6.5,0.6-9.6,0.9    c0,1.1,0.1,2.3,0.3,3.4C291.7,258.1,292.6,260.4,293.7,262.5z"></path>
		<path class="st3" d="M293.7,262.5c0.8,1.5,1.8,2.9,3,4.1c1.1,1.2,2.3,2.2,3.6,3.1c3.5,2.4,7.7,3.7,12.2,3.7    c12.4,0,22.1-9.7,22.1-22c0-1-0.1-1.9-0.2-2.9c-3.3,0.2-6.5,0.5-9.6,0.7c0.1,0.7,0.2,1.4,0.2,2.2c0,7.5-5.2,12.9-12.3,12.9    c-1.1,0-2.1-0.1-3.1-0.4c-0.8-0.2-1.6-0.5-2.3-0.8c-0.7-0.4-1.4-0.8-2.1-1.3c-2.9-2.3-4.6-6-4.6-10.5c0,0,0-0.1,0-0.1    c-3.3,0.3-6.5,0.6-9.6,0.9c0,1.1,0.1,2.3,0.3,3.4C291.7,258.1,292.6,260.4,293.7,262.5z"></path>
		<path d="M352.4,272.3h0.9h0.9h4.3l11.1-26c-3.4,0.2-6.7,0.4-10,0.6L357,253l-0.5,1.1l-0.5,1.1l-0.7,1.5l-4-9.3    c-3.2,0.2-6.4,0.4-9.5,0.6l10.4,24.2H352.4z"></path>
		<path class="st3" d="M352.4,272.3h0.9h0.9h4.3l11.1-26c-3.4,0.2-6.7,0.4-10,0.6L357,253l-0.5,1.1l-0.5,1.1l-0.7,1.5l-4-9.3    c-3.2,0.2-6.4,0.4-9.5,0.6l10.4,24.2H352.4z"></path>
		<path d="M379.2,263c0.9,1.5,1.9,3,3,4.2c1,1.1,2.2,2.1,3.4,2.9c3,2,6.6,3.2,10.4,3.2c5,0,8.9-1.7,12.8-5.5l1-0.9v4.8v0.5h0.8h1.4    h0.8h6.6v-28.6c-3.7,0.2-7.3,0.3-10.9,0.5c0,0.1,0.1,0.2,0.1,0.2c0.4,0.8,0.8,1.6,1,2.5c0.4,1.4,0.6,2.8,0.6,4.4    c0,7.9-5.1,13.4-12.3,13.4c-1,0-1.9-0.1-2.7-0.3c-0.8-0.2-1.6-0.5-2.4-0.8c-0.8-0.4-1.5-0.8-2.2-1.4c-2.9-2.4-4.7-6.2-4.7-10.8    c0-2.3,0.5-4.4,1.3-6.2c-3.5,0.2-6.9,0.4-10.3,0.6c-0.4,1.8-0.6,3.7-0.6,5.7C376.3,255.8,377.4,259.7,379.2,263z"></path>
		<path class="st3" d="M379.2,263c0.9,1.5,1.9,3,3,4.2c1,1.1,2.2,2.1,3.4,2.9c3,2,6.6,3.2,10.4,3.2c5,0,8.9-1.7,12.8-5.5l1-0.9v4.8    v0.5h0.8h1.4h0.8h6.6v-28.6c-3.7,0.2-7.3,0.3-10.9,0.5c0,0.1,0.1,0.2,0.1,0.2c0.4,0.8,0.8,1.6,1,2.5c0.4,1.4,0.6,2.8,0.6,4.4    c0,7.9-5.1,13.4-12.3,13.4c-1,0-1.9-0.1-2.7-0.3c-0.8-0.2-1.6-0.5-2.4-0.8c-0.8-0.4-1.5-0.8-2.2-1.4c-2.9-2.4-4.7-6.2-4.7-10.8    c0-2.3,0.5-4.4,1.3-6.2c-3.5,0.2-6.9,0.4-10.3,0.6c-0.4,1.8-0.6,3.7-0.6,5.7C376.3,255.8,377.4,259.7,379.2,263z"></path>
		<path d="M428.4,272.3h0.8h0.8h6.6v-29.3c-3.2,0.1-6.4,0.3-9.6,0.4v28.9H428.4z"></path>
		<path class="st3" d="M428.4,272.3h0.8h0.8h6.6v-29.3c-3.2,0.1-6.4,0.3-9.6,0.4v28.9H428.4z"></path>
		<path d="M442.4,251.4c0,4.2,1,8.1,2.9,11.3c0.8,1.4,1.7,2.6,2.7,3.8c1.1,1.2,2.2,2.2,3.5,3.1c3.5,2.4,7.8,3.8,12.7,3.8    c8,0,13.6-2.3,17.9-7.4c0.2-0.2,0.4-0.4,0.5-0.7c0.1-0.2,0.3-0.3,0.4-0.5l-5.7-2.7l-2.3-1.1c-3.1,2.9-6.2,4.1-10.7,4.1    c-1.3,0-2.4-0.1-3.5-0.4c-0.9-0.2-1.7-0.5-2.5-0.9c-0.8-0.4-1.5-0.8-2.1-1.3c-2.3-1.8-3.8-4.4-4.4-7.7l-0.1-0.6h34.6    c0-0.2,0-0.5,0-0.7c0-0.4,0-0.7,0-1.2c0-4.1-0.9-7.7-2.4-10.9c-3.3,0.1-6.5,0.2-9.7,0.3c0,0,0.1,0.1,0.1,0.1    c0.5,0.6,1,1.3,1.4,2.1c0.4,0.7,0.7,1.4,0.9,2.2l0.1,0.2l0.2,0.5h-19.3h-1h-1h-3.6l0.3-0.8c0.5-1.4,1.2-2.6,2-3.6    c-3.4,0.1-6.7,0.3-10,0.4c0,0,0,0.1,0,0.1C442.9,245.5,442.4,248.5,442.4,251.4z"></path>
		<path class="st3" d="M442.4,251.4c0,4.2,1,8.1,2.9,11.3c0.8,1.4,1.7,2.6,2.7,3.8c1.1,1.2,2.2,2.2,3.5,3.1    c3.5,2.4,7.8,3.8,12.7,3.8c8,0,13.6-2.3,17.9-7.4c0.2-0.2,0.4-0.4,0.5-0.7c0.1-0.2,0.3-0.3,0.4-0.5l-5.7-2.7l-2.3-1.1    c-3.1,2.9-6.2,4.1-10.7,4.1c-1.3,0-2.4-0.1-3.5-0.4c-0.9-0.2-1.7-0.5-2.5-0.9c-0.8-0.4-1.5-0.8-2.1-1.3c-2.3-1.8-3.8-4.4-4.4-7.7    l-0.1-0.6h34.6c0-0.2,0-0.5,0-0.7c0-0.4,0-0.7,0-1.2c0-4.1-0.9-7.7-2.4-10.9c-3.3,0.1-6.5,0.2-9.7,0.3c0,0,0.1,0.1,0.1,0.1    c0.5,0.6,1,1.3,1.4,2.1c0.4,0.7,0.7,1.4,0.9,2.2l0.1,0.2l0.2,0.5h-19.3h-1h-1h-3.6l0.3-0.8c0.5-1.4,1.2-2.6,2-3.6    c-3.4,0.1-6.7,0.3-10,0.4c0,0,0,0.1,0,0.1C442.9,245.5,442.4,248.5,442.4,251.4z"></path>
		<path class="st2" d="M492.8,272.3h0.8h0.8h27.4v-6.8v-0.8v-0.8v-1.2h-16.4h-0.8h-0.8h-2.5v-16.3h20.5v-6.2    c-10.4,0.3-20.6,0.5-30.5,0.8v31.3H492.8z"></path>
		<path class="st4" d="M492.8,272.3h0.8h0.8h27.4v-6.8v-0.8v-0.8v-1.2h-16.4h-0.8h-0.8h-2.5v-16.3h20.5v-6.2    c-10.4,0.3-20.6,0.5-30.5,0.8v31.3H492.8z"></path>
		<path class="st2" d="M525.4,263.8v8.4h0.7h0.7h0.8h0.8h6.6v-32.4c-3.2,0.1-6.4,0.1-9.6,0.2v10.3V263.8z"></path>
		<path class="st4" d="M525.4,263.8v8.4h0.7h0.7h0.8h0.8h6.6v-32.4c-3.2,0.1-6.4,0.1-9.6,0.2v10.3V263.8z"></path>
		<path class="st2" d="M538.3,249.3c-0.1,0.7-0.1,1.4-0.1,2.1c0,0.8,0,1.5,0.1,2.2c0.1,1.6,0.4,3.1,0.8,4.5c0.5,1.6,1.1,3.1,1.9,4.6    c0.8,1.4,1.7,2.6,2.7,3.8c1.1,1.2,2.2,2.2,3.5,3.1c3.5,2.4,7.8,3.8,12.7,3.8c8,0,13.6-2.3,17.9-7.4c0.2-0.2,0.4-0.4,0.5-0.7    c0.1-0.2,0.3-0.3,0.4-0.5l-5.7-2.7l-2.3-1.1c-3.1,2.9-6.2,4.1-10.7,4.1c-1.3,0-2.4-0.1-3.5-0.4c-0.9-0.2-1.7-0.5-2.5-0.9    c-0.8-0.4-1.5-0.8-2.1-1.3c-2.3-1.8-3.8-4.4-4.4-7.7l-0.1-0.6h34.6c0-0.2,0-0.5,0-0.7c0-0.4,0-0.7,0-1.2c0-5.1-1.3-9.5-3.7-13.1    c-3.8,0.1-7.6,0.1-11.3,0.2c1.2,0.7,2.2,1.5,3,2.5c0.5,0.6,1,1.3,1.4,2.1c0.4,0.7,0.7,1.4,0.9,2.2l0.1,0.2l0.2,0.5h-19.3h-1h-1    h-3.6l0.3-0.8c1.1-2.8,2.8-5,4.9-6.4c-3.9,0.1-7.7,0.2-11.5,0.2c-1,1.6-1.7,3.4-2.3,5.2C538.7,246.4,538.4,247.8,538.3,249.3z"></path>
		<path class="st4" d="M538.3,249.3c-0.1,0.7-0.1,1.4-0.1,2.1c0,0.8,0,1.5,0.1,2.2c0.1,1.6,0.4,3.1,0.8,4.5c0.5,1.6,1.1,3.1,1.9,4.6    c0.8,1.4,1.7,2.6,2.7,3.8c1.1,1.2,2.2,2.2,3.5,3.1c3.5,2.4,7.8,3.8,12.7,3.8c8,0,13.6-2.3,17.9-7.4c0.2-0.2,0.4-0.4,0.5-0.7    c0.1-0.2,0.3-0.3,0.4-0.5l-5.7-2.7l-2.3-1.1c-3.1,2.9-6.2,4.1-10.7,4.1c-1.3,0-2.4-0.1-3.5-0.4c-0.9-0.2-1.7-0.5-2.5-0.9    c-0.8-0.4-1.5-0.8-2.1-1.3c-2.3-1.8-3.8-4.4-4.4-7.7l-0.1-0.6h34.6c0-0.2,0-0.5,0-0.7c0-0.4,0-0.7,0-1.2c0-5.1-1.3-9.5-3.7-13.1    c-3.8,0.1-7.6,0.1-11.3,0.2c1.2,0.7,2.2,1.5,3,2.5c0.5,0.6,1,1.3,1.4,2.1c0.4,0.7,0.7,1.4,0.9,2.2l0.1,0.2l0.2,0.5h-19.3h-1h-1    h-3.6l0.3-0.8c1.1-2.8,2.8-5,4.9-6.4c-3.9,0.1-7.7,0.2-11.5,0.2c-1,1.6-1.7,3.4-2.3,5.2C538.7,246.4,538.4,247.8,538.3,249.3z"></path>
		<path class="st2" d="M599.6,272.3h0.9h0.9h4.3l14.4-33.9c-3.3,0-6.5,0.1-9.7,0.1l-6.2,14.5l-0.5,1.1l-0.5,1.1l-0.7,1.5l-7.7-18    c-3.3,0-6.5,0.1-9.7,0.2l14.3,33.4H599.6z"></path>
		<path class="st4" d="M599.6,272.3h0.9h0.9h4.3l14.4-33.9c-3.3,0-6.5,0.1-9.7,0.1l-6.2,14.5l-0.5,1.1l-0.5,1.1l-0.7,1.5l-7.7-18    c-3.3,0-6.5,0.1-9.7,0.2l14.3,33.4H599.6z"></path>
		<path class="st2" d="M626.5,263c0.9,1.5,1.9,3,3,4.2c1,1.1,2.2,2.1,3.4,2.9c3,2,6.6,3.2,10.4,3.2c5,0,8.9-1.7,12.8-5.5l1-0.9v4.8    v0.5h0.8h1.4h0.8h6.6v-34.3c-13.5,0.1-26.7,0.2-39.5,0.4c-2.3,3.6-3.7,8.1-3.7,13.2C623.5,255.8,624.6,259.7,626.5,263z     M645.3,238.2c3.9,0,7.1,1.5,9.3,4.1c0.5,0.6,1,1.3,1.4,2.1c0.4,0.8,0.8,1.6,1,2.5c0.4,1.4,0.6,2.8,0.6,4.4    c0,7.9-5.1,13.4-12.3,13.4c-1,0-1.9-0.1-2.7-0.3c-0.8-0.2-1.6-0.5-2.4-0.8c-0.8-0.4-1.5-0.8-2.2-1.4c-2.9-2.4-4.7-6.2-4.7-10.8    C633.2,243.8,638.3,238.2,645.3,238.2z"></path>
		<path class="st4" d="M626.5,263c0.9,1.5,1.9,3,3,4.2c1,1.1,2.2,2.1,3.4,2.9c3,2,6.6,3.2,10.4,3.2c5,0,8.9-1.7,12.8-5.5l1-0.9v4.8    v0.5h0.8h1.4h0.8h6.6v-34.3c-13.5,0.1-26.7,0.2-39.5,0.4c-2.3,3.6-3.7,8.1-3.7,13.2C623.5,255.8,624.6,259.7,626.5,263z     M645.3,238.2c3.9,0,7.1,1.5,9.3,4.1c0.5,0.6,1,1.3,1.4,2.1c0.4,0.8,0.8,1.6,1,2.5c0.4,1.4,0.6,2.8,0.6,4.4    c0,7.9-5.1,13.4-12.3,13.4c-1,0-1.9-0.1-2.7-0.3c-0.8-0.2-1.6-0.5-2.4-0.8c-0.8-0.4-1.5-0.8-2.2-1.4c-2.9-2.4-4.7-6.2-4.7-10.8    C633.2,243.8,638.3,238.2,645.3,238.2z"></path>
		<path class="st2" d="M669.2,238.7h0.8h0.1h0.7h0.1h0.8h2.4v2.4v0.8v0.8v29.5h1.4h0.8h0.8h6.6v-33.6h6.4v-0.9    c-7.2,0-14.4,0.1-21.4,0.1v0.8H669.2z"></path>
		<path class="st4" d="M669.2,238.7h0.8h0.1h0.7h0.1h0.8h2.4v2.4v0.8v0.8v29.5h1.4h0.8h0.8h6.6v-33.6h6.4v-0.9    c-7.2,0-14.4,0.1-21.4,0.1v0.8H669.2z"></path>
		<path class="st2" d="M692.7,239.8c-0.2,0.4-0.4,0.8-0.7,1.2c-0.1,0.3-0.3,0.6-0.4,0.8c-0.1,0.3-0.2,0.6-0.4,0.8    c-1.1,2.8-1.7,5.8-1.7,8.7c0,4.2,1,8.1,2.9,11.3c0.8,1.4,1.7,2.6,2.7,3.8c1.1,1.2,2.2,2.2,3.5,3.1c3.5,2.4,7.8,3.8,12.7,3.8    c8,0,13.6-2.3,17.9-7.4c0.2-0.2,0.4-0.4,0.5-0.7c0.1-0.2,0.3-0.3,0.4-0.5l-5.7-2.7l-2.3-1.1c-3.1,2.9-6.2,4.1-10.7,4.1    c-1.3,0-2.4-0.1-3.5-0.4c-0.9-0.2-1.7-0.5-2.5-0.9c-0.8-0.4-1.5-0.8-2.1-1.3c-2.3-1.8-3.8-4.4-4.4-7.7l-0.1-0.6h34.6    c0-0.2,0-0.5,0-0.7c0-0.4,0-0.7,0-1.2c0-5.6-1.6-10.4-4.4-14.2c-0.1-0.1-0.2-0.2-0.3-0.3c-5,0-10,0-14.9,0c3.1,0.5,5.7,1.9,7.6,4    c0.5,0.6,1,1.3,1.4,2.1c0.4,0.7,0.7,1.4,0.9,2.2l0.1,0.2l0.2,0.5h-19.3h-1h-1h-3.6l0.3-0.8c1.8-4.6,5-7.4,9.5-8.2    c-5,0-9.9,0-14.7,0.1c-0.2,0.3-0.4,0.5-0.6,0.8C693.2,238.9,693,239.4,692.7,239.8z"></path>
		<path class="st4" d="M692.7,239.8c-0.2,0.4-0.4,0.8-0.7,1.2c-0.1,0.3-0.3,0.6-0.4,0.8c-0.1,0.3-0.2,0.6-0.4,0.8    c-1.1,2.8-1.7,5.8-1.7,8.7c0,4.2,1,8.1,2.9,11.3c0.8,1.4,1.7,2.6,2.7,3.8c1.1,1.2,2.2,2.2,3.5,3.1c3.5,2.4,7.8,3.8,12.7,3.8    c8,0,13.6-2.3,17.9-7.4c0.2-0.2,0.4-0.4,0.5-0.7c0.1-0.2,0.3-0.3,0.4-0.5l-5.7-2.7l-2.3-1.1c-3.1,2.9-6.2,4.1-10.7,4.1    c-1.3,0-2.4-0.1-3.5-0.4c-0.9-0.2-1.7-0.5-2.5-0.9c-0.8-0.4-1.5-0.8-2.1-1.3c-2.3-1.8-3.8-4.4-4.4-7.7l-0.1-0.6h34.6    c0-0.2,0-0.5,0-0.7c0-0.4,0-0.7,0-1.2c0-5.6-1.6-10.4-4.4-14.2c-0.1-0.1-0.2-0.2-0.3-0.3c-5,0-10,0-14.9,0c3.1,0.5,5.7,1.9,7.6,4    c0.5,0.6,1,1.3,1.4,2.1c0.4,0.7,0.7,1.4,0.9,2.2l0.1,0.2l0.2,0.5h-19.3h-1h-1h-3.6l0.3-0.8c1.8-4.6,5-7.4,9.5-8.2    c-5,0-9.9,0-14.7,0.1c-0.2,0.3-0.4,0.5-0.6,0.8C693.2,238.9,693,239.4,692.7,239.8z"></path>
	</g>
</g>
<g>
	<polygon points="44.5,43.5 292.9,43.5 292.9,7.8 5.2,7.8 5.2,182.7 44.5,182.7 44.5,112.5 141.3,112.5 141.3,77.3 44.5,77.3  "></polygon>
	<path d="M884.5,7.3v101.6l-86-101.4h-31.5v57.2c-12.5-36.2-47-62.3-87.5-62.3c-28.3,0-53.7,12.7-70.6,32.8l0.2-27.9l-188.9,0v101.6   l-86-101.4h-31.5v138.6H190.3v-33.6h100.3V77.4H151.3v105.3h151.5h1.9h37.4V72.1l92.2,110.5l25.3,0.1V41.6h52.2v141.1H551V41.6h53   c-10.7,15.1-17,33.5-17,53.4c0,51.1,41.4,92.5,92.5,92.5c40.5,0,74.9-26,87.5-62.3v57.4h39.3V72.1l92.3,110.5l25.2,0.1V7.3H884.5z    M679.6,150.5c-30.7,0-55.5-24.9-55.5-55.5c0-30.7,24.9-55.5,55.5-55.5c30.7,0,55.5,24.9,55.5,55.5   C735.1,125.6,710.3,150.5,679.6,150.5"></path>
</g>
</svg>