<svg width="183" height="56" viewBox="0 0 183 56" fill="none" xmlns="http://www.w3.org/2000/svg">
<path d="M66.0457 29.2842H64.0428V45.085H66.8791V38.4675H74.0366V35.9238H66.8791V31.85H74.4185V29.2842H66.8791H66.0457Z" fill="#1F3DB0"/>
<path d="M83.8608 34.7196C83.0733 34.2468 82.1688 34.0107 81.1483 34.0107C80.1278 34.0107 79.1454 34.2582 78.2899 34.7532C77.4343 35.2482 76.7514 35.9204 76.2419 36.7676C75.7316 37.6155 75.4765 38.5795 75.4765 39.6596C75.4765 40.7397 75.7355 41.7076 76.2534 42.5631C76.7713 43.4187 77.4649 44.0901 78.3349 44.5775C79.205 45.0656 80.2034 45.3093 81.3286 45.3093C82.1841 45.3093 82.9862 45.1519 83.7371 44.8364C84.4872 44.5209 85.1327 44.0565 85.6728 43.4408L84.0067 41.7756C83.6767 42.1506 83.2788 42.4325 82.8136 42.6196C82.3484 42.8076 81.8381 42.9008 81.2827 42.9008C80.6671 42.9008 80.1193 42.7655 79.6396 42.4959C79.1592 42.2255 78.7879 41.8474 78.5251 41.3592C78.409 41.1431 78.3197 40.9063 78.2547 40.6504H86.2563C86.3014 40.4105 86.3389 40.1928 86.3686 39.998C86.3984 39.8032 86.4137 39.6077 86.4137 39.4129C86.4137 38.3626 86.1845 37.436 85.727 36.6331C85.2694 35.8303 84.6469 35.1925 83.8585 34.7196H83.8608ZM78.2601 38.5344C78.3204 38.3045 78.4006 38.0899 78.5037 37.8928C78.7512 37.4199 79.1003 37.0525 79.5503 36.7897C80.0002 36.5277 80.5257 36.3956 81.1261 36.3956C81.7266 36.3956 82.1841 36.5117 82.589 36.7447C82.9938 36.9776 83.3017 37.3153 83.5117 37.7576C83.6217 37.9905 83.7065 38.2495 83.7676 38.5344H78.2601Z" fill="#1F3DB0"/>
<path d="M96.2013 35.3173C95.9011 35.0003 95.5528 34.7329 95.1548 34.5175C94.5322 34.1799 93.8081 34.0111 92.9831 34.0111C91.9923 34.0111 91.1039 34.2624 90.3156 34.765C89.528 35.2676 88.9047 35.9429 88.4472 36.7908C87.9896 37.6387 87.7604 38.6027 87.7604 39.6829C87.7604 40.763 87.9888 41.7048 88.4472 42.5527C88.9047 43.4007 89.5311 44.0721 90.3263 44.5671C91.1215 45.0621 92.0068 45.3096 92.9823 45.3096C93.7928 45.3096 94.5162 45.1408 95.154 44.8031C95.565 44.5854 95.921 44.3142 96.2234 43.9904V45.085H98.9245V29.2842H96.2013V35.3173ZM95.9989 41.2809C95.759 41.7461 95.4214 42.1105 94.986 42.3725C94.5505 42.6352 94.041 42.7666 93.4552 42.7666C92.8693 42.7666 92.401 42.6352 91.9587 42.3725C91.5157 42.1105 91.1673 41.7423 90.9122 41.2694C90.6571 40.7966 90.5295 40.2603 90.5295 39.6599C90.5295 39.0595 90.6571 38.5233 90.9122 38.0504C91.1673 37.5776 91.5118 37.2102 91.9472 36.9474C92.3827 36.6854 92.8845 36.5532 93.4552 36.5532C94.0258 36.5532 94.5276 36.6846 94.963 36.9474C95.3977 37.2102 95.7399 37.5738 95.9874 38.039C96.2349 38.5042 96.3586 39.0443 96.3586 39.6592C96.3586 40.2741 96.2387 40.8149 95.9989 41.2801V41.2809Z" fill="#1F3DB0"/>
<path d="M108.863 34.7196C108.075 34.2468 107.171 34.0107 106.15 34.0107C105.13 34.0107 104.147 34.2582 103.292 34.7532C102.436 35.2482 101.753 35.9204 101.244 36.7676C100.733 37.6155 100.478 38.5795 100.478 39.6596C100.478 40.7397 100.737 41.7076 101.255 42.5631C101.773 43.4187 102.467 44.0901 103.337 44.5775C104.207 45.0656 105.205 45.3093 106.33 45.3093C107.186 45.3093 107.988 45.1519 108.739 44.8364C109.489 44.5209 110.134 44.0565 110.675 43.4408L109.009 41.7756C108.679 42.1506 108.281 42.4325 107.816 42.6196C107.351 42.8076 106.841 42.9008 106.285 42.9008C105.67 42.9008 105.122 42.7655 104.642 42.4959C104.162 42.2255 103.79 41.8474 103.528 41.3592C103.412 41.1431 103.322 40.9063 103.257 40.6504H111.259C111.304 40.4105 111.341 40.1928 111.371 39.998C111.401 39.8032 111.416 39.6077 111.416 39.4129C111.416 38.3626 111.187 37.436 110.73 36.6331C110.272 35.8303 109.649 35.1925 108.861 34.7196H108.863ZM103.262 38.5344C103.322 38.3045 103.402 38.0899 103.506 37.8928C103.753 37.4199 104.102 37.0525 104.552 36.7897C105.002 36.5277 105.528 36.3956 106.128 36.3956C106.728 36.3956 107.186 36.5117 107.591 36.7447C107.996 36.9776 108.303 37.3153 108.514 37.7576C108.624 37.9905 108.708 38.2495 108.769 38.5344H103.262Z" fill="#1F3DB0"/>
<path d="M120.339 34.2919C119.904 34.1047 119.424 34.0107 118.898 34.0107C117.683 34.0107 116.763 34.4156 116.142 35.2261C116.13 35.2414 116.119 35.2566 116.108 35.2719V34.2353H113.362V45.0839H116.108V39.0745C116.108 38.2044 116.318 37.559 116.738 37.1388C117.158 36.7187 117.691 36.5086 118.336 36.5086C118.651 36.5086 118.925 36.5537 119.157 36.6438C119.39 36.734 119.603 36.8837 119.799 37.0938L121.532 35.2032C121.172 34.783 120.774 34.479 120.339 34.2919Z" fill="#1F3DB0"/>
<path d="M130.108 35.3788C129.802 35.0351 129.439 34.7464 129.016 34.5172C128.393 34.1796 127.677 34.0107 126.866 34.0107C125.891 34.0107 125.006 34.2621 124.21 34.7647C123.415 35.2673 122.789 35.9464 122.331 36.802C121.874 37.6575 121.645 38.6177 121.645 39.6825C121.645 40.7474 121.873 41.7045 122.331 42.5524C122.789 43.4003 123.411 44.0718 124.2 44.5668C124.987 45.0618 125.876 45.3093 126.867 45.3093C127.662 45.3093 128.375 45.1404 129.005 44.8028C129.435 44.5729 129.8 44.2841 130.108 43.9396V45.0839H132.809V34.2353H130.108V35.3781L130.108 35.3788ZM129.432 41.8993C128.892 42.4768 128.194 42.7656 127.339 42.7656C126.769 42.7656 126.266 42.6342 125.831 42.3714C125.396 42.1094 125.054 41.7412 124.807 41.2684C124.559 40.7955 124.436 40.2593 124.436 39.6589C124.436 39.0585 124.563 38.5222 124.818 38.0494C125.074 37.5765 125.418 37.2091 125.854 36.9463C126.288 36.6843 126.784 36.5522 127.339 36.5522C127.924 36.5522 128.435 36.6836 128.87 36.9463C129.305 37.2091 129.643 37.5765 129.883 38.0494C130.123 38.5222 130.243 39.0585 130.243 39.6589C130.243 40.574 129.972 41.3211 129.432 41.8986V41.8993Z" fill="#1F3DB0"/>
<path d="M139.907 29.2842H137.161V34.2356H134.595V36.6663H137.161V45.085H139.907V36.6663H142.45V34.2356H139.907V29.2842Z" fill="#1F3DB0"/>
<path d="M145.61 29.1934C145.161 29.1934 144.785 29.3477 144.485 29.6547C144.185 29.9626 144.035 30.3415 144.035 30.7914C144.035 31.2413 144.185 31.621 144.485 31.928C144.785 32.2359 145.161 32.3894 145.61 32.3894C146.06 32.3894 146.455 32.2359 146.747 31.928C147.04 31.621 147.186 31.2413 147.186 30.7914C147.186 30.3415 147.04 29.9626 146.747 29.6547C146.455 29.3477 146.076 29.1934 145.61 29.1934Z" fill="#31489D"/>
<path d="M146.961 34.2354H144.26V45.084H146.961V34.2354Z" fill="#1F3DB0"/>
<path d="M157.466 34.7532C156.603 34.2582 155.632 34.0107 154.551 34.0107C153.47 34.0107 152.499 34.2621 151.636 34.7647C150.773 35.2673 150.083 35.9388 149.565 36.779C149.047 37.6193 148.788 38.5726 148.788 39.6375C148.788 40.7023 149.047 41.6633 149.565 42.5181C150.083 43.3736 150.773 44.0527 151.636 44.5553C152.498 45.058 153.47 45.3093 154.551 45.3093C155.632 45.3093 156.603 45.058 157.466 44.5553C158.328 44.0527 159.015 43.3736 159.525 42.5181C160.036 41.6625 160.291 40.7031 160.291 39.6375C160.291 38.5719 160.036 37.6155 159.525 36.7676C159.015 35.9204 158.328 35.2482 157.466 34.7532ZM157.14 41.247C156.885 41.7198 156.535 42.0872 156.093 42.35C155.65 42.6128 155.137 42.7442 154.552 42.7442C153.967 42.7442 153.472 42.6128 153.021 42.35C152.571 42.088 152.218 41.7198 151.963 41.247C151.708 40.7741 151.58 40.2379 151.58 39.6375C151.58 39.0371 151.708 38.5314 151.963 38.073C152.218 37.6155 152.571 37.2557 153.021 36.9929C153.471 36.7309 153.981 36.5988 154.552 36.5988C155.122 36.5988 155.651 36.7263 156.093 36.9815C156.535 37.2366 156.885 37.5972 157.14 38.0616C157.395 38.5268 157.522 39.0523 157.522 39.6375C157.522 40.2226 157.395 40.7741 157.14 41.247Z" fill="#1F3DB0"/>
<path d="M170.001 34.6295C169.371 34.217 168.651 34.0107 167.84 34.0107C167.03 34.0107 166.325 34.1948 165.679 34.5623C165.301 34.7777 164.972 35.0412 164.689 35.3491V34.2353H161.943V45.0839H164.689V38.8491C164.689 38.3992 164.782 37.9974 164.97 37.6453C165.157 37.2931 165.428 37.0151 165.781 36.8126C166.133 36.6102 166.542 36.5086 167.008 36.5086C167.683 36.5086 168.234 36.7301 168.662 37.1724C169.09 37.6155 169.304 38.1739 169.304 38.8491V45.0839H172.027V38.2411C172.027 37.536 171.847 36.8608 171.487 36.2153C171.127 35.5706 170.631 35.0412 170.001 34.6287V34.6295Z" fill="#1F3DB0"/>
<path d="M180.861 39.2545C180.433 38.9993 179.987 38.8007 179.522 38.6579C179.057 38.5158 178.614 38.3875 178.194 38.2752C177.774 38.1629 177.429 38.0238 177.159 37.8589C176.889 37.6939 176.755 37.4838 176.755 37.2287C176.755 36.9437 176.882 36.7337 177.137 36.5985C177.392 36.4632 177.752 36.396 178.217 36.396C178.712 36.396 179.166 36.4862 179.579 36.6664C179.992 36.8467 180.356 37.1393 180.671 37.5441L182.359 35.8789C181.894 35.2487 181.313 34.7758 180.614 34.4611C179.917 34.1464 179.125 33.9883 178.24 33.9883C177.354 33.9883 176.675 34.1311 176.068 34.4161C175.46 34.701 174.991 35.0913 174.661 35.5863C174.331 36.0813 174.166 36.6817 174.166 37.3868C174.166 38.0323 174.297 38.5609 174.56 38.9733C174.823 39.3866 175.168 39.709 175.595 39.9412C176.023 40.1742 176.465 40.3575 176.923 40.4927C177.38 40.6279 177.823 40.7555 178.25 40.8754C178.678 40.9961 179.023 41.142 179.285 41.3146C179.548 41.4873 179.679 41.7309 179.679 42.0464C179.679 42.3619 179.548 42.572 179.285 42.7217C179.023 42.8722 178.628 42.947 178.104 42.947C177.503 42.947 176.959 42.8386 176.472 42.6209C175.984 42.4039 175.545 42.0846 175.155 41.6645L173.49 43.3298C173.85 43.7499 174.27 44.1066 174.75 44.3992C175.23 44.6917 175.759 44.9209 176.337 45.0859C176.914 45.2509 177.503 45.3334 178.104 45.3334C179.394 45.3334 180.414 45.0225 181.164 44.3992C181.915 43.7766 182.29 42.9325 182.29 41.8669C182.29 41.2069 182.158 40.6707 181.895 40.2574C181.633 39.8449 181.287 39.5111 180.86 39.256L180.861 39.2545Z" fill="#1F3DB0"/>
<path d="M65.9105 25.3888C66.627 25.7547 67.4482 25.9373 68.374 25.9373C69.419 25.9373 70.3226 25.7135 71.0842 25.2651C71.8458 24.8167 72.4393 24.1896 72.8648 23.3837C73.2903 22.577 73.5034 21.629 73.5034 20.539L73.5057 9.85156H70.6679L70.6809 20.7406C70.6809 21.2784 70.5839 21.7375 70.3898 22.1179C70.1958 22.4983 69.9231 22.7901 69.5725 22.9918C69.2211 23.1935 68.7995 23.2943 68.3068 23.2943C67.8438 23.2943 67.4222 23.1896 67.041 22.9803C66.6606 22.7718 66.3428 22.48 66.0892 22.1065L64.1184 23.8985C64.5958 24.5257 65.194 25.0222 65.9105 25.3881V25.3888Z" fill="#1C87ED"/>
<path d="M77.9293 25.2095C78.7948 25.6953 79.7886 25.9374 80.9085 25.9374C81.7594 25.9374 82.5584 25.7808 83.3048 25.4669C84.0511 25.1529 84.6935 24.6908 85.2313 24.0782L83.5736 22.4205C83.2452 22.7941 82.8495 23.0737 82.3866 23.2608C81.9237 23.448 81.4157 23.5411 80.8634 23.5411C80.2508 23.5411 79.7061 23.4067 79.2279 23.1378C78.7497 22.8689 78.38 22.4923 78.1188 22.0065C78.0027 21.7919 77.9141 21.5558 77.8499 21.3007H85.8126C85.8576 21.0624 85.8943 20.8454 85.9249 20.6514C85.9546 20.4574 85.9699 20.2633 85.9699 20.0686C85.9699 19.0236 85.7423 18.1016 85.287 17.3026C84.831 16.5035 84.2122 15.8688 83.4277 15.3982C82.644 14.9277 81.7441 14.6924 80.7289 14.6924C79.7138 14.6924 78.7352 14.9384 77.8843 15.4318C77.0333 15.9245 76.3535 16.5929 75.8462 17.4362C75.3383 18.2803 75.0847 19.239 75.0847 20.3145C75.0847 21.3901 75.3421 22.3526 75.8577 23.2043C76.3726 24.0552 77.0631 24.7236 77.9293 25.2087V25.2095ZM78.0974 18.5568C78.3441 18.0863 78.6909 17.7204 79.1386 17.4591C79.587 17.1979 80.1087 17.0673 80.7068 17.0673C81.3049 17.0673 81.7594 17.1834 82.1628 17.4141C82.5661 17.6455 82.8716 17.9816 83.0809 18.4216C83.1909 18.6531 83.275 18.9113 83.3353 19.1947H77.8545C77.9141 18.9663 77.9943 18.7524 78.0974 18.5561V18.5568Z" fill="#1C87ED"/>
<path d="M92.2589 25.7139L94.6766 19.3248L97.0752 25.7139H98.8665L103.056 14.918H100.278L97.9307 21.6164L95.552 14.918H93.7821L91.4225 21.6164L89.056 14.918H86.3007L90.4898 25.7139H92.2589Z" fill="#1C87ED"/>
<path d="M105.874 13.0802C106.336 13.0802 106.714 12.9274 107.005 12.6211C107.296 12.3156 107.442 11.9382 107.442 11.4898C107.442 11.0414 107.296 10.6648 107.005 10.3585C106.714 10.053 106.336 9.89941 105.874 9.89941C105.411 9.89941 105.052 10.053 104.754 10.3585C104.455 10.6648 104.306 11.0414 104.306 11.4898C104.306 11.9382 104.455 12.3148 104.754 12.6211C105.052 12.9274 105.426 13.0802 105.874 13.0802Z" fill="#1C87ED"/>
<path d="M107.218 14.918H104.53V25.7139H107.218V14.918Z" fill="#1C87ED"/>
<path d="M116.58 25.0306C117.326 24.4111 117.7 23.5708 117.7 22.5106C117.7 21.8536 117.569 21.3197 117.308 20.9087C117.047 20.4985 116.703 20.1662 116.278 19.9119C115.852 19.6583 115.408 19.4604 114.945 19.3183C114.482 19.177 114.041 19.0494 113.623 18.9379C113.205 18.8256 112.861 18.6881 112.593 18.5231C112.324 18.3589 112.189 18.1504 112.189 17.896C112.189 17.6126 112.316 17.4033 112.57 17.2688C112.823 17.1344 113.182 17.0672 113.645 17.0672C114.138 17.0672 114.589 17.1566 115 17.3361C115.411 17.5156 115.773 17.8066 116.087 18.2099L117.766 16.5523C117.303 15.9252 116.725 15.4546 116.03 15.1414C115.336 14.8275 114.548 14.6709 113.667 14.6709C112.787 14.6709 112.111 14.813 111.506 15.0964C110.901 15.3805 110.434 15.7686 110.105 16.2613C109.777 16.754 109.613 17.3513 109.613 18.0534C109.613 18.6958 109.743 19.2221 110.005 19.6323C110.266 20.0433 110.61 20.3641 111.035 20.5955C111.461 20.827 111.901 21.0096 112.357 21.144C112.812 21.2784 113.253 21.4052 113.678 21.5244C114.104 21.6443 114.447 21.7895 114.709 21.9614C114.97 22.1332 115.1 22.3761 115.1 22.6893C115.1 23.0025 114.97 23.2118 114.709 23.3615C114.447 23.5113 114.055 23.5854 113.533 23.5854C112.936 23.5854 112.394 23.4769 111.909 23.2607C111.424 23.0445 110.987 22.7268 110.599 22.3089L108.941 23.9665C109.3 24.3851 109.717 24.7396 110.196 25.0306C110.673 25.3217 111.199 25.5501 111.775 25.7135C112.349 25.8778 112.936 25.9595 113.533 25.9595C114.817 25.9595 115.832 25.6501 116.579 25.0299L116.58 25.0306Z" fill="#1C87ED"/>
<path d="M122.273 19.5093C122.273 19.0609 122.366 18.6621 122.554 18.3108C122.74 17.9601 123.009 17.6836 123.36 17.4819C123.711 17.2803 124.118 17.1794 124.581 17.1794C125.253 17.1794 125.802 17.4002 126.227 17.8402C126.653 18.281 126.866 18.8371 126.866 19.5085V25.7127H129.576V18.9035C129.576 18.0824 129.396 17.3582 129.038 16.7311C128.68 16.1039 128.183 15.6074 127.549 15.2415C126.914 14.8756 126.193 14.693 125.387 14.693C124.58 14.693 123.86 14.8764 123.225 15.2415C122.862 15.4508 122.546 15.7059 122.273 16.0031V9.85156H119.541V25.7135H122.273V19.5093Z" fill="#1C87ED"/>
<path d="M66.7057 51.3126C66.4223 51.1491 66.1045 51.0674 65.7524 51.0674C65.4002 51.0674 65.0916 51.1499 64.8105 51.3156C64.5294 51.4814 64.3056 51.7037 64.1398 51.9825C63.974 52.2613 63.8915 52.5738 63.8915 52.9206C63.8915 53.2674 63.974 53.5897 64.1398 53.8739C64.3056 54.158 64.5286 54.3826 64.8105 54.5484C65.0916 54.7141 65.4056 54.7966 65.7524 54.7966C66.0992 54.7966 66.4215 54.7134 66.7057 54.5484C66.9891 54.3826 67.2144 54.158 67.3802 53.8739C67.5459 53.5905 67.6284 53.2727 67.6284 52.9206C67.6284 52.5684 67.5459 52.2606 67.3802 51.9787C67.2144 51.6976 66.9898 51.4753 66.7057 51.3118V51.3126ZM66.7775 53.55C66.6766 53.7333 66.5391 53.8777 66.3635 53.9831C66.1878 54.0885 65.9846 54.1412 65.7531 54.1412C65.5217 54.1412 65.3337 54.0885 65.1581 53.9831C64.9824 53.8777 64.8441 53.7333 64.744 53.55C64.6432 53.3667 64.5935 53.1574 64.5935 52.9213C64.5935 52.6853 64.644 52.4844 64.744 52.3033C64.8441 52.1223 64.9824 51.981 65.1581 51.8779C65.3337 51.7747 65.5324 51.7236 65.7531 51.7236C65.9739 51.7236 66.1862 51.7755 66.3596 51.8779C66.533 51.981 66.6713 52.1231 66.7737 52.3033C66.8768 52.4844 66.928 52.6899 66.928 52.9213C66.928 53.1528 66.8775 53.3674 66.7775 53.55Z" fill="#1F3DB0"/>
<path d="M70.0675 49.2674C69.7963 49.2674 69.558 49.3254 69.3517 49.4408C69.1455 49.5561 68.9851 49.7142 68.8697 49.9151C68.7544 50.116 68.6963 50.3475 68.6963 50.608V51.1427H67.8224V51.7607H68.6963V54.7215H69.3815V51.7607H70.5189V51.1427H69.3815V50.608C69.3815 50.3872 69.4403 50.2153 69.5587 50.0916C69.6764 49.9686 69.8437 49.9067 70.0598 49.9067C70.1752 49.9067 70.273 49.9243 70.3539 49.9594C70.4341 49.9946 70.5067 50.0473 70.5724 50.1176L71.017 49.6806C70.8917 49.5447 70.7534 49.4423 70.603 49.372C70.4525 49.3017 70.2737 49.2666 70.0682 49.2666L70.0675 49.2674Z" fill="#1F3DB0"/>
<path d="M76.3588 53.3607L73.4514 49.4932H72.9542V54.7211H73.6623V50.8437L76.5696 54.7211H77.0669V49.4932H76.3588V53.3607Z" fill="#1F3DB0"/>
<path d="M80.4906 51.3126C80.2072 51.1491 79.8895 51.0674 79.5373 51.0674C79.1852 51.0674 78.8766 51.1499 78.5955 51.3156C78.3144 51.4814 78.0905 51.7037 77.9248 51.9825C77.759 52.2613 77.6765 52.5738 77.6765 52.9206C77.6765 53.2674 77.759 53.5897 77.9248 53.8739C78.0905 54.158 78.3136 54.3826 78.5955 54.5484C78.8766 54.7141 79.1905 54.7966 79.5373 54.7966C79.8841 54.7966 80.2065 54.7134 80.4906 54.5484C80.774 54.3826 80.9994 54.158 81.1652 53.8739C81.3309 53.5905 81.4134 53.2727 81.4134 52.9206C81.4134 52.5684 81.3309 52.2606 81.1652 51.9787C80.9994 51.6976 80.7748 51.4753 80.4906 51.3118V51.3126ZM80.5625 53.55C80.4616 53.7333 80.3241 53.8777 80.1484 53.9831C79.9727 54.0885 79.7695 54.1412 79.5381 54.1412C79.3066 54.1412 79.1187 54.0885 78.943 53.9831C78.7673 53.8777 78.6291 53.7333 78.529 53.55C78.4282 53.3667 78.3785 53.1574 78.3785 52.9213C78.3785 52.6853 78.4289 52.4844 78.529 52.3033C78.6291 52.1223 78.7673 51.981 78.943 51.8779C79.1187 51.7747 79.3173 51.7236 79.5381 51.7236C79.7588 51.7236 79.9712 51.7755 80.1446 51.8779C80.318 51.981 80.4563 52.1231 80.5586 52.3033C80.6618 52.4844 80.7129 52.6899 80.7129 52.9213C80.7129 53.1528 80.6625 53.3674 80.5625 53.55Z" fill="#1F3DB0"/>
<path d="M84.1022 51.1613C83.9563 51.0987 83.7936 51.0674 83.6126 51.0674C83.2161 51.0674 82.9121 51.2034 82.7013 51.4745C82.6799 51.502 82.66 51.5311 82.6409 51.5609V51.143H81.9626V54.721H82.6409V52.6868C82.6409 52.3553 82.7211 52.1093 82.8823 51.9489C83.0427 51.7885 83.249 51.7075 83.5003 51.7075C83.621 51.7075 83.7264 51.7251 83.8165 51.7602C83.9067 51.7954 83.9899 51.8534 84.0648 51.9336L84.5093 51.4738C84.3841 51.3279 84.2481 51.224 84.1022 51.1613Z" fill="#1F3DB0"/>
<path d="M86.3304 49.4893H85.6529V51.1438H84.7714V51.761H85.6529V54.7218H86.3304V51.761H87.212V51.1438H86.3304V49.4893Z" fill="#1F3DB0"/>
<path d="M90.2835 51.2485C90.075 51.1278 89.8351 51.0674 89.5639 51.0674C89.2928 51.0674 89.0491 51.1293 88.8329 51.2523C88.6702 51.3447 88.535 51.4624 88.4258 51.6052V49.4893H87.7474V54.7218H88.4258V52.6349C88.4258 52.4539 88.4663 52.2935 88.5465 52.1529C88.6267 52.0123 88.7374 51.9016 88.878 51.8214C89.0185 51.7412 89.1789 51.7007 89.36 51.7007C89.6312 51.7007 89.8512 51.7885 90.0192 51.9642C90.1873 52.1399 90.2713 52.3637 90.2713 52.6349V54.7218H90.9565V52.4997C90.9565 52.2186 90.8961 51.9696 90.7755 51.7542C90.6548 51.538 90.4905 51.3699 90.282 51.2492L90.2835 51.2485Z" fill="#1F3DB0"/>
<path d="M95.8071 49.4932L93.6599 54.7211H94.4207L94.8943 53.5387H97.2111L97.6824 54.7211H98.4509L96.3189 49.4932H95.8063H95.8071ZM95.1418 52.9207L96.0554 50.6382L96.9652 52.9207H95.1418Z" fill="#1F3DB0"/>
<path d="M103.787 51.2331C103.581 51.1224 103.348 51.0674 103.087 51.0674C102.826 51.0674 102.605 51.1239 102.394 51.237C102.183 51.35 102.011 51.5059 101.878 51.7045C101.875 51.7083 101.873 51.7121 101.871 51.7159C101.868 51.7113 101.865 51.706 101.862 51.7006C101.744 51.4997 101.584 51.3439 101.38 51.2339C101.177 51.1231 100.95 51.0681 100.699 51.0681C100.448 51.0681 100.212 51.1247 100.006 51.2377C99.8541 51.321 99.7258 51.4287 99.6219 51.5601V51.1438H98.9436V54.7218H99.6219V52.56C99.6219 52.379 99.6624 52.2262 99.7426 52.1001C99.8228 51.9749 99.9282 51.8771 100.059 51.8061C100.189 51.7358 100.338 51.7006 100.503 51.7006C100.749 51.7006 100.954 51.777 101.118 51.9306C101.281 52.0841 101.363 52.2934 101.363 52.5592V54.721H102.041V52.5592C102.041 52.3782 102.082 52.2254 102.162 52.0994C102.242 51.9741 102.349 51.8763 102.482 51.8053C102.615 51.735 102.765 51.6999 102.93 51.6999C103.172 51.6999 103.373 51.7763 103.537 51.9298C103.7 52.0833 103.782 52.2926 103.782 52.5585V54.7202H104.467V52.4225C104.467 52.1414 104.405 51.9 104.282 51.6991C104.159 51.4982 103.995 51.3424 103.789 51.2324L103.787 51.2331Z" fill="#1F3DB0"/>
<path d="M107.716 51.2935C107.46 51.143 107.168 51.0674 106.842 51.0674C106.495 51.0674 106.183 51.1491 105.904 51.3126C105.625 51.4761 105.405 51.6983 105.241 51.9795C105.078 52.2606 104.996 52.5776 104.996 52.929C104.996 53.2803 105.078 53.6042 105.244 53.8853C105.41 54.1664 105.634 54.3887 105.919 54.5522C106.202 54.7157 106.525 54.7974 106.886 54.7974C107.168 54.7974 107.431 54.7447 107.677 54.6393C107.923 54.5339 108.134 54.3803 108.31 54.1794L107.873 53.7348C107.752 53.8754 107.608 53.9808 107.439 54.0511C107.271 54.1214 107.087 54.1565 106.886 54.1565C106.644 54.1565 106.431 54.1053 106.246 54.0022C106.06 53.8991 105.916 53.7539 105.816 53.5653C105.755 53.4499 105.712 53.3231 105.689 53.1849H108.491C108.506 53.1146 108.516 53.0504 108.52 52.9924C108.525 52.9351 108.528 52.8808 108.528 52.8304C108.528 52.489 108.456 52.1849 108.313 51.9191C108.171 51.6533 107.97 51.4447 107.714 51.2935H107.716ZM106.217 51.8435C106.393 51.7434 106.596 51.693 106.828 51.693C107.059 51.693 107.237 51.7396 107.393 51.832C107.549 51.9252 107.669 52.0558 107.754 52.2239C107.812 52.3385 107.85 52.4706 107.869 52.6196H105.692C105.715 52.4905 105.754 52.3721 105.81 52.2659C105.906 52.0849 106.041 51.9443 106.217 51.8442V51.8435Z" fill="#1F3DB0"/>
<path d="M111.484 51.1613C111.338 51.0987 111.176 51.0674 110.995 51.0674C110.598 51.0674 110.294 51.2034 110.083 51.4745C110.062 51.502 110.042 51.5311 110.023 51.5609V51.143H109.345V54.721H110.023V52.6868C110.023 52.3553 110.103 52.1093 110.264 51.9489C110.425 51.7885 110.631 51.7075 110.882 51.7075C111.003 51.7075 111.108 51.7251 111.199 51.7602C111.289 51.7954 111.372 51.8534 111.447 51.9336L111.891 51.4738C111.766 51.3279 111.63 51.224 111.484 51.1613Z" fill="#1F3DB0"/>
<path d="M113.128 51.1436H112.443V54.7216H113.128V51.1436Z" fill="#1F3DB0"/>
<path d="M112.789 49.5615C112.664 49.5615 112.561 49.6028 112.48 49.686C112.4 49.7685 112.36 49.8709 112.36 49.9908C112.36 50.1108 112.4 50.2207 112.48 50.3032C112.561 50.3857 112.664 50.4278 112.789 50.4278C112.914 50.4278 113.017 50.3865 113.098 50.3032C113.178 50.2207 113.218 50.1161 113.218 49.9908C113.218 49.8655 113.178 49.7685 113.098 49.686C113.017 49.6028 112.914 49.5615 112.789 49.5615Z" fill="#1F3DB0"/>
<path d="M115.085 51.8771C115.261 51.774 115.462 51.7228 115.688 51.7228C115.873 51.7228 116.047 51.7564 116.207 51.8244C116.368 51.8924 116.504 51.9917 116.614 52.1223L117.067 51.6701C116.896 51.4745 116.692 51.3248 116.456 51.2217C116.22 51.1186 115.964 51.0674 115.688 51.0674C115.336 51.0674 115.019 51.1491 114.734 51.3126C114.45 51.4761 114.227 51.6983 114.064 51.9795C113.9 52.2606 113.819 52.5776 113.819 52.929C113.819 53.2803 113.9 53.5905 114.064 53.8746C114.227 54.1588 114.45 54.3834 114.734 54.5491C115.018 54.7149 115.336 54.7974 115.688 54.7974C115.964 54.7974 116.221 54.7447 116.46 54.6393C116.698 54.5339 116.901 54.3857 117.067 54.1947L116.622 53.7425C116.507 53.8731 116.37 53.9724 116.212 54.0396C116.054 54.1076 115.879 54.1412 115.689 54.1412C115.462 54.1412 115.262 54.0885 115.086 53.9831C114.91 53.8777 114.772 53.7348 114.672 53.5538C114.571 53.3728 114.521 53.165 114.521 52.9282C114.521 52.6914 114.572 52.4836 114.672 52.3026C114.772 52.1215 114.91 51.9802 115.086 51.8771H115.085Z" fill="#1F3DB0"/>
<path d="M120.373 51.143V51.6296C120.25 51.4661 120.096 51.3355 119.91 51.237C119.696 51.1239 119.454 51.0674 119.183 51.0674C118.851 51.0674 118.554 51.1499 118.29 51.3156C118.026 51.4814 117.818 51.7052 117.664 51.9863C117.51 52.2674 117.434 52.5837 117.434 52.9358C117.434 53.288 117.51 53.6035 117.664 53.8853C117.817 54.1664 118.025 54.3887 118.29 54.5522C118.553 54.7157 118.851 54.7974 119.183 54.7974C119.454 54.7974 119.697 54.7409 119.914 54.6278C120.099 54.5308 120.252 54.4009 120.373 54.2382V54.7218H121.059V51.1438H120.373V51.143ZM120.11 53.8135C119.904 54.0419 119.633 54.1565 119.296 54.1565C119.07 54.1565 118.869 54.1038 118.694 53.9984C118.518 53.893 118.381 53.7486 118.284 53.5653C118.186 53.3819 118.137 53.1696 118.137 52.929C118.137 52.6883 118.186 52.4836 118.284 52.3003C118.381 52.117 118.517 51.9726 118.691 51.8672C118.864 51.7618 119.063 51.709 119.29 51.709C119.516 51.709 119.713 51.761 119.881 51.8633C120.049 51.9665 120.181 52.1108 120.276 52.2965C120.372 52.4821 120.419 52.696 120.419 52.9366C120.419 53.2933 120.316 53.5859 120.111 53.8143L120.11 53.8135Z" fill="#1F3DB0"/>
<path d="M50.9805 26.0999L50.9675 25.9326C50.7536 23.1017 50.0378 20.367 48.8393 17.8034C47.6759 15.3139 46.0955 13.062 44.1415 11.1118C42.1875 9.16165 39.9325 7.58347 37.4384 6.42161C34.871 5.22538 32.131 4.51116 29.2955 4.29727C28.7043 4.2522 28.0993 4.23005 27.4989 4.23005C26.8984 4.23005 26.2942 4.25296 25.703 4.29727C22.8675 4.51116 20.1274 5.22538 17.56 6.42161C15.066 7.58347 12.811 9.16088 10.857 11.1118C8.903 13.062 7.32254 15.3139 6.15915 17.8034C4.96139 20.367 4.24564 23.1017 4.03099 25.9326L4.018 26.0999H0L0.0122221 25.9074C0.446869 19.2632 3.29155 13.0032 8.02149 8.28089C12.7514 3.55936 19.0221 0.720028 25.6778 0.286145C26.2812 0.246423 26.8939 0.226562 27.4996 0.226562C28.1054 0.226562 28.718 0.246423 29.3215 0.286145C35.9771 0.720028 42.2478 3.55936 46.9778 8.28166C51.7077 13.004 54.5524 19.2632 54.9863 25.9081L54.9985 26.1006H50.9797L50.9805 26.0999Z" fill="#1C87ED"/>
<path d="M27.4996 55.2259C26.8939 55.2259 26.2812 55.206 25.6778 55.1663C19.0221 54.7324 12.7514 51.8931 8.02149 47.1708C3.29155 42.4492 0.446869 36.1892 0.0122221 29.545L0 29.3525H4.01876L4.03175 29.5198C4.24564 32.3508 4.96139 35.0854 6.15991 37.649C7.3233 40.1385 8.90377 42.3904 10.8578 44.3406C12.8118 46.2908 15.0667 47.8689 17.5608 49.0308C20.0701 50.1995 22.7429 50.9084 25.509 51.1399V47.8453C23.1822 47.6184 20.9348 46.9981 18.8265 45.999C16.7289 45.0052 14.8299 43.6669 13.1815 42.0215C11.533 40.3761 10.1924 38.4801 9.19709 36.3863C8.17273 34.2322 7.54559 31.9322 7.33247 29.5511L7.3149 29.3541H11.3421L11.3596 29.5152C11.5621 31.3623 12.0777 33.1444 12.8904 34.812C13.6818 36.436 14.7344 37.9087 16.0178 39.1905C17.3018 40.4723 18.7777 41.5226 20.404 42.3133C22.0142 43.0955 23.7306 43.6012 25.509 43.8181V40.5059C24.1676 40.2997 22.8743 39.8849 21.6628 39.2738C20.4353 38.6543 19.3177 37.8461 18.3415 36.8714C17.3652 35.8967 16.5555 34.7814 15.9353 33.5562C15.299 32.2996 14.8758 30.9559 14.6779 29.5611L14.6489 29.3548H18.7066L18.7356 29.5C19.0824 31.2217 19.9273 32.7915 21.1785 34.0405C22.3771 35.2367 23.8704 36.0609 25.5097 36.4329V29.3556H29.4918V36.4329C31.1311 36.0609 32.6252 35.2367 33.823 34.0405C35.0742 32.7915 35.9183 31.2217 36.2659 29.5L36.2949 29.3548H40.3526L40.3236 29.5611C40.1258 30.9559 39.7026 32.2996 39.0663 33.5562C38.4452 34.7814 37.6355 35.8974 36.66 36.8714C35.6846 37.8453 34.5663 38.6543 33.3387 39.2738C32.1272 39.8857 30.8339 40.2997 29.4926 40.5059V43.8181C31.2709 43.6012 32.9873 43.0955 34.5976 42.3133C36.2239 41.5234 37.6997 40.4723 38.9838 39.1905C40.2678 37.9087 41.3197 36.436 42.1111 34.812C42.9239 33.1444 43.4387 31.3623 43.6419 29.5152L43.6595 29.3541H47.6866L47.6691 29.5511C47.4559 31.9329 46.828 34.2322 45.8044 36.3863C44.8083 38.4801 43.4685 40.3768 41.82 42.0215C40.1716 43.6669 38.2726 45.0052 36.175 45.999C34.0667 46.9981 31.8194 47.6184 29.4926 47.8453V51.1399C32.2586 50.9084 34.9322 50.1995 37.4407 49.0308C39.9348 47.8689 42.1898 46.2915 44.1438 44.3406C46.0978 42.3904 47.6782 40.1385 48.8416 37.649C50.0394 35.0854 50.7551 32.3508 50.9698 29.5198L50.9828 29.3525H55.0015L54.9893 29.545C54.5547 36.19 51.7107 42.4492 46.9808 47.1715C42.2509 51.8938 35.9802 54.7332 29.3245 55.167C28.7211 55.2068 28.1084 55.2266 27.5027 55.2266L27.4996 55.2259Z" fill="#1F3DB0"/>
<path d="M43.6579 26.1001L43.6403 25.939C43.4379 24.0919 42.9223 22.3098 42.1095 20.6422C41.3182 19.0182 40.2655 17.5455 38.9822 16.2637C37.6981 14.9819 36.2223 13.9316 34.596 13.1417C32.9254 12.3305 31.1402 11.8164 29.2901 11.614C28.7019 11.549 28.0992 11.5162 27.4996 11.5162C26.9 11.5162 26.298 11.549 25.7098 11.614C23.8597 11.8164 22.0745 12.3305 20.4039 13.1417C18.7776 13.9316 17.3018 14.9827 16.0177 16.2637C14.7337 17.5455 13.6818 19.0182 12.8904 20.6422C12.0777 22.3098 11.5628 24.0919 11.3596 25.939L11.342 26.1001H7.31488L7.33245 25.9031C7.54557 23.5213 8.17348 21.222 9.19708 19.0679C10.1932 16.9741 11.533 15.0781 13.1815 13.4328C14.8299 11.7874 16.7289 10.449 18.8265 9.45524C20.9845 8.4324 23.2883 7.80602 25.6739 7.59367C26.2751 7.53943 26.8893 7.5127 27.4996 7.5127C28.1099 7.5127 28.7241 7.5402 29.326 7.59367C31.7116 7.80679 34.0155 8.43317 36.1727 9.45524C38.2703 10.449 40.1693 11.7874 41.8177 13.4328C43.4662 15.0781 44.8068 16.9741 45.8021 19.0679C46.8265 21.222 47.4536 23.5221 47.6668 25.9031L47.6843 26.1001H43.6572H43.6579Z" fill="#1C87ED"/>
<path d="M30.4039 22.1816C30.4039 22.6178 30.3367 23.0387 30.2122 23.4336C29.6798 25.1203 28.1008 26.3432 26.2354 26.3432C25.949 26.3432 25.6694 26.3142 25.399 26.2592C26.0636 25.794 26.4982 25.0232 26.4982 24.1517C26.4982 23.5092 26.2622 22.9218 25.8726 22.4711C25.8183 22.4085 25.7611 22.3481 25.7007 22.2908C25.0392 21.5545 24.6374 20.5813 24.6374 19.5141C24.6374 19.078 24.7046 18.6571 24.8291 18.2622C25.3615 16.5755 26.9405 15.3525 28.8059 15.3525C29.0923 15.3525 29.3719 15.3816 29.6423 15.4366C28.9777 15.9018 28.5431 16.6725 28.5431 17.5441C28.5431 18.1865 28.7791 18.774 29.1687 19.2246C29.223 19.2873 29.2802 19.3476 29.3406 19.4049C30.0021 20.1413 30.4039 21.1145 30.4039 22.1816Z" fill="#1C87ED"/>
</svg>
